<svg xmlns="http://www.w3.org/2000/svg" viewBox="0 0 400 300" width="406" height="306" class="illustration styles_illustrationTablet__1DWOa"><g id="_36_vr" data-name="#36_vr"><path d="M207.68,55.09H81l-.34-5.38a14.84,14.84,0,0,1,15-16h94.8a17.23,17.23,0,0,1,17,16Z" fill="#fff"></path><path d="M207.68,55.59H81a.5.5,0,0,1-.5-.47l-.34-5.38a15.34,15.34,0,0,1,15.48-16.5h94.8a17.74,17.74,0,0,1,17.45,16.43l.34,5.39a.51.51,0,0,1-.5.53Zm-126.26-1H207.15l-.3-4.85a16.73,16.73,0,0,0-16.46-15.5H95.59A14.34,14.34,0,0,0,81.11,49.67Z" fill="#231f20"></path><polygon points="220.65 264.9 93.92 264.9 80.96 55.29 207.69 55.29 220.65 264.9" fill="#fff"></polygon><path d="M220.65,265.4H93.92a.5.5,0,0,1-.5-.47l-13-209.61a.52.52,0,0,1,.13-.38.51.51,0,0,1,.37-.15H207.69a.5.5,0,0,1,.5.47l13,209.61a.51.51,0,0,1-.5.53Zm-126.26-1H220.12L207.22,55.79H81.49Z" fill="#231f20"></path><path d="M147.83,46.81H132.9a.5.5,0,0,1-.5-.5.5.5,0,0,1,.5-.5h14.93a.5.5,0,0,1,.5.5A.5.5,0,0,1,147.83,46.81Z" fill="#231f20"></path><path d="M154.64,46.81h-3.41a.5.5,0,0,1-.5-.5.51.51,0,0,1,.5-.5h3.41a.5.5,0,0,1,.5.5A.5.5,0,0,1,154.64,46.81Z" fill="#231f20"></path><path d="M201.78,146.35H147.56a.5.5,0,0,1-.5-.47l-5.15-70.72a.46.46,0,0,1,.13-.37.46.46,0,0,1,.36-.16h53a.48.48,0,0,1,.49.45l6.34,70.72a.56.56,0,0,1-.13.39A.52.52,0,0,1,201.78,146.35Zm-53.76-1h53.21L195,75.63H142.94Z" fill="#d1d3d4"></path><path d="M164.91,221.1a.5.5,0,0,1-.5-.44c-1.1-9.69-2-21-2-21.14a.5.5,0,0,1,.43-.53,6.09,6.09,0,0,0,4.19-2.55c3.23-4.53,1.64-13.35,1.63-13.44a.51.51,0,0,1,.53-.59l5.1.4a.48.48,0,0,1,.46.52c0,.09-.48,8.87,2.2,11.35a2.13,2.13,0,0,0,1.82.57,2.56,2.56,0,0,0,1.87-1.16c2.12-3,.48-10.6.46-10.68a.5.5,0,0,1,.1-.42.48.48,0,0,1,.39-.18h4.32a.49.49,0,0,1,.5.49,43.41,43.41,0,0,0,1.3,8.28,4.88,4.88,0,0,0,2.12,3.22,6.85,6.85,0,0,0,4.55.66.5.5,0,0,1,.38.06.54.54,0,0,1,.22.33c1.75,8.75,3.72,24.43,3.74,24.59a.51.51,0,0,1-.12.39.5.5,0,0,1-.38.17l-33.33.1Zm-1.44-21.21c.17,2.17.94,11.74,1.89,20.21l32.32-.1c-.37-2.82-2-15.64-3.57-23.48a7.46,7.46,0,0,1-4.79-.87,5.91,5.91,0,0,1-2.57-3.85,49.69,49.69,0,0,1-1.3-8h-3.23c.36,1.94,1.28,8-.74,10.85a3.57,3.57,0,0,1-2.55,1.58,3.08,3.08,0,0,1-2.64-.83c-2.66-2.46-2.6-9.67-2.54-11.64l-4-.31c.32,2.19,1.09,9.37-1.89,13.56A7,7,0,0,1,163.47,199.89Z" fill="#d1d3d4"></path><path d="M171.66,99.67s-5.5-.63-12.43,3.93S142.55,114,142.55,114s.69.52,3.78,9.28l12.75-4.41s1.44,13.5,2,19.52l-22.11,34s6.92,5.82,12.74,1.57c0,0,1.42,6,6.14,5.2s6.29-3.94,6.29-3.94,1.57,5,5.51,4.41,6-4.57,6-4.57,2,5.2,6.92,4.41a7.93,7.93,0,0,0,6.14-5.51s5.35,10.39,16.2-1.1L190.7,138.37l2.83-20,9,7.08s6.14.47,4.72-7.39c0,0-11.58-14.8-16.93-17.32S171.66,99.67,171.66,99.67Z" fill="#fff"></path><path d="M169,180.15c-2.52,0-4.18-2.16-5-3.89a9.57,9.57,0,0,1-6.09,3.36c-3.7.61-5.76-2.62-6.51-4.89-5.94,3.66-12.71-1.93-12.78-2a.49.49,0,0,1-.09-.65l22-33.83c-.46-5.28-1.6-16-1.88-18.72l-12.16,4.2a.49.49,0,0,1-.63-.3c-2.86-8.08-3.63-9.07-3.67-9.11a.43.43,0,0,1-.16-.4.49.49,0,0,1,.27-.37c.1-.06,9.82-5.87,16.66-10.38,6.69-4.41,12-4.08,12.7-4,1.05-.11,13.54-1.35,18.84,1.14s16.64,16.85,17.12,17.46a.43.43,0,0,1,.09.22c.52,2.84.14,5-1.12,6.37a5.41,5.41,0,0,1-4.13,1.61.52.52,0,0,1-.27-.1l-8.28-6.55-2.69,19,14.1,34.33a.51.51,0,0,1-.09.54c-3.9,4.11-7.56,6-10.9,5.49a8.49,8.49,0,0,1-5.56-3.62,8.1,8.1,0,0,1-6.17,4.88c-3.94.65-6.18-2.35-7-3.87a9.19,9.19,0,0,1-5.85,4A4.81,4.81,0,0,1,169,180.15Zm-4.85-5.46h0a.49.49,0,0,1,.44.34c.06.19,1.5,4.63,4.95,4.06,3.64-.58,5.59-4.26,5.61-4.3a.52.52,0,0,1,.47-.26.49.49,0,0,1,.44.31c.08.2,2,4.81,6.38,4.1a7.35,7.35,0,0,0,5.73-5.15.51.51,0,0,1,.93-.1s1.84,3.48,5.38,4c2.93.41,6.23-1.26,9.8-5l-14-34.16a.46.46,0,0,1,0-.26l2.83-20a.47.47,0,0,1,.31-.39.49.49,0,0,1,.49.07l8.84,7h0a4.39,4.39,0,0,0,3.17-1.29c1-1.14,1.32-3,.9-5.4-1-1.29-11.72-14.74-16.68-17.08-5.16-2.42-18.22-1.06-18.35-1h-.11c-.06,0-5.43-.55-12.1,3.85-6,4-14.27,8.94-16.26,10.13a74.71,74.71,0,0,1,3.39,8.48l12.27-4.24a.5.5,0,0,1,.43,0,.48.48,0,0,1,.23.37c0,.14,1.46,13.57,2,19.53a.53.53,0,0,1-.08.32l-21.86,33.59c1.44,1.06,7.06,4.72,11.78,1.28a.51.51,0,0,1,.46-.07.52.52,0,0,1,.32.36c.05.22,1.36,5.51,5.56,4.81,4.39-.73,5.87-3.54,5.93-3.66A.51.51,0,0,1,164.11,174.69Z" fill="#231f20"></path><path d="M168.45,102.54a.48.48,0,0,1-.34-.13.5.5,0,0,1,0-.71c3.36-3.63,10.31-5.9,11.78-6.35a5.33,5.33,0,0,0-.28-3.73,9.88,9.88,0,0,0-1-1.3c-1-1.22-2.24-2.75-1.93-4.41A4.45,4.45,0,0,1,179.18,83a2.64,2.64,0,0,1,2.5-.29c1.62.7,2.19,3.11,2.22,3.21a.5.5,0,0,1-1,.22c-.13-.56-.68-2.1-1.63-2.52a1.74,1.74,0,0,0-1.61.24,3.68,3.68,0,0,0-2,2.23c-.22,1.21.81,2.48,1.73,3.6a10.54,10.54,0,0,1,1.06,1.45,6.51,6.51,0,0,1,.28,4.78.49.49,0,0,1-.33.31c-.08,0-8.1,2.37-11.6,6.15A.46.46,0,0,1,168.45,102.54Z" fill="#231f20"></path><path d="M189.6,103.85a.52.52,0,0,1-.43-.24,19.91,19.91,0,0,0-9.07-7.39.49.49,0,0,1-.3-.64.51.51,0,0,1,.64-.3,20.53,20.53,0,0,1,9.58,7.81.49.49,0,0,1-.16.69A.48.48,0,0,1,189.6,103.85Z" fill="#231f20"></path><path d="M178.94,107.43a20.65,20.65,0,0,1-2.67-.18c-9.13-1.22-9.74-6.7-9.76-6.93a.5.5,0,1,1,1-.1c0,.22.62,4.94,8.9,6a20.17,20.17,0,0,0,14.64-4,.51.51,0,0,1,.71,0,.51.51,0,0,1-.06.71A20.88,20.88,0,0,1,178.94,107.43Z" fill="#231f20"></path><path d="M240.2,94.9s-4.73,10.86-3.34,12,5,.28,5,.28" fill="#fff"></path><path d="M239.26,108a4.42,4.42,0,0,1-2.71-.7c-1.47-1.17,1.37-8.37,3.2-12.56a.5.5,0,0,1,.91.4c-2.4,5.53-4,10.74-3.48,11.39,1,.78,3.64.39,4.58.17a.5.5,0,0,1,.6.38.5.5,0,0,1-.37.6A13.4,13.4,0,0,1,239.26,108Z" fill="#231f20"></path><path d="M255.92,125.21l-2.75-5.76s-4.51,3.26-9.27-4-5.76-35.31-5.76-35.31,12.52,17.56,16,14.74c-.7-5.07,2.17-8.28,5.77-2,2.82,4.93-2.67,7.88-2.67,7.88l4.65,17.42" fill="#fff"></path><path d="M255.92,125.71a.5.5,0,0,1-.45-.28L253,120.15a5.56,5.56,0,0,1-3.39.43c-2.18-.4-4.23-2-6.08-4.86-4.78-7.3-5.8-34.42-5.84-35.57a.5.5,0,0,1,.34-.49.5.5,0,0,1,.57.18c2.82,4,10.92,14.32,14.48,14.82a1.32,1.32,0,0,0,.61,0c-.32-2.86.44-5.09,1.94-5.6.85-.29,2.61-.2,4.81,3.64a5.57,5.57,0,0,1,.67,4.4,7.64,7.64,0,0,1-3.2,4l4.56,17a.5.5,0,0,1-1,.26l-4.66-17.42a.51.51,0,0,1,.25-.57,6.9,6.9,0,0,0,3.06-3.57,4.61,4.61,0,0,0-.58-3.62c-1.33-2.32-2.68-3.52-3.62-3.19s-1.61,2.1-1.23,4.84a.48.48,0,0,1-.18.46,2,2,0,0,1-1.6.39c-3.91-.54-11.47-10.25-14.18-13.89.31,6.1,1.64,27.35,5.61,33.41,1.69,2.58,3.51,4.07,5.4,4.43a4.33,4.33,0,0,0,3.16-.56.51.51,0,0,1,.74.2l2.75,5.76a.49.49,0,0,1-.23.66A.44.44,0,0,1,255.92,125.71Z" fill="#231f20"></path><ellipse cx="243.23" cy="94.75" rx="0.94" ry="2.71" transform="translate(-8.94 27.32) rotate(-6.31)" fill="#231f20"></ellipse><path d="M310.12,165.91a.5.5,0,0,1-.07-1c11.3-1.44,21-10.13,22.47-20.23.65-4.26,0-9-1.84-14.37a33.79,33.79,0,0,0-7.44-12.69c-5.36-5.44-12.64-8-19.67-10.54a102.75,102.75,0,0,1-10.63-4.24c-8.18-4-11.31-10.3-14.62-17a79,79,0,0,0-5-9,22.6,22.6,0,0,0-31.53-6.52l-.95.63a17.88,17.88,0,0,1-3.31,1.87,15.19,15.19,0,0,1-1.5.47c-.43.13-.86.25-1.28.4a8.72,8.72,0,0,0,.47,16.54.51.51,0,0,1,.33.63.5.5,0,0,1-.62.33,9.73,9.73,0,0,1-.53-18.44c.45-.16.9-.29,1.36-.42a14.53,14.53,0,0,0,1.41-.45,15.84,15.84,0,0,0,3.11-1.76l1-.64a23.57,23.57,0,0,1,32.9,6.8,80.5,80.5,0,0,1,5.08,9.15c3.37,6.78,6.28,12.64,14.16,16.5a101.1,101.1,0,0,0,10.52,4.2c7.14,2.54,14.53,5.18,20.05,10.78A34.53,34.53,0,0,1,331.62,130c1.94,5.56,2.56,10.42,1.89,14.85-1.58,10.52-11.61,19.58-23.33,21.08Z" fill="#231f20"></path><path d="M252.72,153.58S242,154.89,220,138.65s-29.33-44.73-30.71-46.3-2-1.58-4-1.88a8.63,8.63,0,0,1-5.85-3.9,1.26,1.26,0,0,1-.25-.76.93.93,0,0,1,1-.68,3.72,3.72,0,0,1,1.27.49,6.72,6.72,0,0,0,2.67.68,1.72,1.72,0,0,0,.9-.15,1.64,1.64,0,0,0,.66-1.49c0-1.86-1.18-5.32-3.68-4.16a2.24,2.24,0,0,0-1.26,2.26,1.2,1.2,0,0,1,0,.68c-.14.28-.52.34-.84.32a3.09,3.09,0,1,1,.85-6.11L177.47,77a5.53,5.53,0,0,1-2.08-.71,1.91,1.91,0,0,1-.91-1.87,2.09,2.09,0,0,1,.54-1c1.3-1.43,3.4-1.73,5.32-1.93,3.09-.33,6.29-.61,9.27.29,6,1.81,9,6.55,12,11.71,9.47,16.33,23.32,30.28,40.05,39.11,7.53,4,16,7.45,24.5,6.76" fill="#fff"></path><path d="M252,154.11c-2.82,0-13.41-1.08-32.35-15.06C201.56,125.67,193.3,104,190.19,95.8a25.93,25.93,0,0,0-1.29-3.12c-1.16-1.32-1.71-1.41-3.52-1.7l-.13,0A9.11,9.11,0,0,1,179,86.83a1.64,1.64,0,0,1-.31-1.08,1.41,1.41,0,0,1,1.56-1.12,3.26,3.26,0,0,1,1.25.44l.2.1a6.23,6.23,0,0,0,2.48.63,1.29,1.29,0,0,0,.63-.08c.37-.21.4-.86.4-1.06,0-1.3-.57-3.08-1.51-3.68a1.41,1.41,0,0,0-1.46,0,1.77,1.77,0,0,0-1,1.75l0,.1a1.42,1.42,0,0,1-.08.87,1.27,1.27,0,0,1-1.33.58,3.54,3.54,0,0,1-2.46-1.36,3.44,3.44,0,0,1,.7-5.09l.22-.14-1-.21a6,6,0,0,1-2.26-.79A2.43,2.43,0,0,1,174,74.28a2.62,2.62,0,0,1,.66-1.2c1.4-1.53,3.55-1.87,5.63-2.09,3.42-.36,6.49-.59,9.48.31,6,1.81,9,6.28,12.27,11.94a100.9,100.9,0,0,0,39.85,38.92c6.62,3.5,15.36,7.41,24.23,6.7a.49.49,0,0,1,.53.46.49.49,0,0,1-.45.54c-9.13.74-18-3.25-24.77-6.81a101.91,101.91,0,0,1-40.26-39.3c-3.17-5.47-6-9.79-11.69-11.49-2.81-.84-5.77-.63-9.08-.28-1.9.2-3.84.5-5,1.78a1.66,1.66,0,0,0-.42.72,1.44,1.44,0,0,0,.7,1.35,5,5,0,0,0,1.9.64l3.33.69a.49.49,0,0,1,.39.58.52.52,0,0,1-.59.4,2.72,2.72,0,0,0-3,2.18A2.72,2.72,0,0,0,180,83.26a.66.66,0,0,0,.36-.05,1.38,1.38,0,0,0,0-.26l0-.13A2.76,2.76,0,0,1,181.86,80a2.42,2.42,0,0,1,2.42.1c1.44.93,2,3.27,2,4.53a2.05,2.05,0,0,1-.92,1.92,2.21,2.21,0,0,1-1.16.21,7.34,7.34,0,0,1-2.87-.73l-.22-.11a2.35,2.35,0,0,0-.87-.33c-.22,0-.47.11-.49.24s.12.35.17.44A8.1,8.1,0,0,0,185.4,90l.13,0c1.87.3,2.72.43,4.12,2a17.44,17.44,0,0,1,1.48,3.43c3.08,8.09,11.26,29.59,29.15,42.79,21.52,15.89,32.28,14.85,32.39,14.84a.49.49,0,0,1,.55.44.49.49,0,0,1-.43.55A5.34,5.34,0,0,1,252,154.11Z" fill="#231f20"></path><path d="M205.9,189.72c-1.17-1.57-18.86-38.5-18.86-38.5l19.65.39L224,186.19Z" fill="#231f20"></path><path d="M205.9,190.22a.47.47,0,0,1-.39-.2c-1.2-1.59-18.19-37.08-18.91-38.59a.46.46,0,0,1,0-.48.58.58,0,0,1,.42-.23l19.65.39a.53.53,0,0,1,.44.28L224.42,186a.51.51,0,0,1,0,.45.44.44,0,0,1-.35.26L206,190.21Zm-18.06-38.49c4.95,10.33,16.58,34.47,18.3,37.44l17.1-3.35L206.38,152.1Z" fill="#231f20"></path><polygon points="206.23 184.88 190.59 153.39 205.8 154.14 219.72 183.44 206.23 184.88" fill="#808"></polygon><path d="M314.65,201.51s14.14,17.29,13.75,30.65-3.54,16.11-3.54,16.11l3.41,17.65L255,266.1l4.16-46.52Z" fill="#231f20"></path><path d="M255,266.6a.5.5,0,0,1-.5-.54l4.17-46.52a.48.48,0,0,1,.34-.43L314.49,201a.5.5,0,0,1,.54.15c.58.72,14.26,17.59,13.86,31-.34,11.6-2.76,15.36-3.49,16.25l3.36,17.4a.47.47,0,0,1-.11.41.5.5,0,0,1-.38.19L255,266.6ZM259.61,220l-4.09,45.64,72.15-.18-3.3-17.06a.52.52,0,0,1,.16-.47s3-2.91,3.37-15.75c.36-12.13-11.67-27.83-13.43-30Z" fill="#231f20"></path><path d="M254.82,223.91S253,222,251.48,195.47s-15.43-26.27-10.11-53.16C246.15,118.1,263.1,116.8,274,118.1c23.55,2.8,17.83,31.94,45.33,85C319.36,203.08,302.11,237.55,254.82,223.91Z" fill="#808"></path><path d="M251.28,152.4c.79,0,5.89,22.12,5.21,25.87-.76,4.15-12.58,3.23-15.33,3.21-3.88,0-15.21,1.14-18.47-.91-2.77-1.74-6-3.68-8.21-6.08-1.83-1.94-3.21-4.2-5.12-6.16a10.86,10.86,0,0,0-2.61-2.17,11.36,11.36,0,0,0-3-.91,2.23,2.23,0,0,0-1.59.08,1.51,1.51,0,0,0-.61,1.47,4.44,4.44,0,0,0,.6,1.56c.65,1.2,4.13,6,3.35,7.19s-6.47-.12-7.85-.26c-3.72-.37-4.63,2.89-4,5.94,1.47,6.56,9.82,9.51,15.28,11.94A111.63,111.63,0,0,0,230,200a180.91,180.91,0,0,0,33.06,3.84c7.29.27,19,.39,23.15-7.07,8.07-14.54-5.76-50.56-5.76-50.56" fill="#fff"></path><path d="M267.24,204.47c-1.56,0-3-.05-4.16-.09a180.45,180.45,0,0,1-33.15-3.86,112.31,112.31,0,0,1-21.2-6.9l-1.71-.74c-5.55-2.4-12.46-5.39-13.85-11.54a6.16,6.16,0,0,1,.89-5.35,4,4,0,0,1,3.6-1.2c.3,0,.81.12,1.42.23,1.37.23,5.52,1,6,.26s-1.85-4.26-2.6-5.43c-.34-.54-.62-1-.77-1.25a5,5,0,0,1-.66-1.74,2,2,0,0,1,.85-2,2.63,2.63,0,0,1,1.95-.14,8.73,8.73,0,0,1,5.91,3.22,35,35,0,0,1,2.76,3.3,37.15,37.15,0,0,0,2.36,2.87,39,39,0,0,0,7.62,5.68l.5.32c2.37,1.49,9.65,1.16,14.47.95,1.52-.07,2.82-.12,3.74-.12l1.28,0c3.54.12,13,.42,13.55-2.83.63-3.48-4.05-23.81-5-25.37a.5.5,0,0,1,.28-.91.78.78,0,0,1,.47.23c1.08,1.3,5.93,22.39,5.23,26.23-.75,4.1-10.08,3.8-14.56,3.65l-1.26,0c-.89,0-2.18.05-3.68.12-5.24.23-12.42.55-15-1.11l-.5-.31a39.5,39.5,0,0,1-7.82-5.85,34.92,34.92,0,0,1-2.42-2.94,36.59,36.59,0,0,0-2.69-3.21,10.39,10.39,0,0,0-2.48-2.07,10.55,10.55,0,0,0-2.91-.87,1.83,1.83,0,0,0-1.23,0,1.05,1.05,0,0,0-.37,1,3.93,3.93,0,0,0,.54,1.38c.14.26.41.68.74,1.19,1.84,2.89,3.31,5.37,2.59,6.51s-3.59.77-7,.18c-.58-.1-1.06-.18-1.35-.21a3.07,3.07,0,0,0-2.75.86,5.16,5.16,0,0,0-.66,4.47c1.27,5.65,7.92,8.53,13.27,10.84l1.72.75a111,111,0,0,0,21,6.83,178.49,178.49,0,0,0,33,3.84c6,.21,18.54.66,22.7-6.83,7.86-14.16-5.66-49.77-5.8-50.13a.5.5,0,0,1,.29-.65.51.51,0,0,1,.65.29c.56,1.48,13.82,36.41,5.73,51C283.08,203.54,273.9,204.47,267.24,204.47Zm-16-51.57h0Zm0,0Z" fill="#231f20"></path><line x1="279.18" y1="141" x2="272.63" y2="126.86" fill="#fff"></line><path d="M279.18,141.5a.48.48,0,0,1-.45-.29l-6.55-14.14a.5.5,0,0,1,.24-.67.52.52,0,0,1,.67.25l6.54,14.14a.5.5,0,0,1-.24.67A.52.52,0,0,1,279.18,141.5Z" fill="#231f20"></path><path d="M226.14,212H226a.5.5,0,0,1-.39-.59c.25-1.21,6.3-29.64,18.31-31a.48.48,0,0,1,.55.44.5.5,0,0,1-.44.55c-11.29,1.32-17.38,30-17.44,30.25A.5.5,0,0,1,226.14,212Z" fill="#231f20"></path><path d="M250.11,214.39h0a.5.5,0,0,1-.47-.53c0-.07.3-7.21-.83-10.42a.5.5,0,1,1,.94-.34c1.2,3.4.9,10.51.88,10.81A.5.5,0,0,1,250.11,214.39Z" fill="#231f20"></path><path d="M210.82,208.84c1.17-.39,59.72,8.91,59.72,8.91l-1.16,62.64L193.94,269Z" fill="#fff"></path><path d="M269.38,280.89h-.08l-75.44-11.39a.5.5,0,0,1-.34-.23.47.47,0,0,1-.06-.4l16.87-60.15a.51.51,0,0,1,.33-.34c1.2-.4,46.19,6.7,60,8.89a.5.5,0,0,1,.42.5l-1.16,62.64a.53.53,0,0,1-.18.37A.49.49,0,0,1,269.38,280.89Zm-74.81-12.31,74.32,11.23L270,218.18c-22.27-3.54-55.14-8.63-58.83-8.84Z" fill="#231f20"></path><path d="M242.62,111.58a2.14,2.14,0,0,1-.47,0,.49.49,0,0,1-.43-.56.51.51,0,0,1,.56-.43c.24,0,5.77.66,7.61-7.22a.5.5,0,0,1,.6-.37.49.49,0,0,1,.37.6C249.14,111,244.18,111.58,242.62,111.58Z" fill="#231f20"></path><path d="M110.59,224a.51.51,0,0,1-.5-.47l-2.32-36.41a.51.51,0,0,1,.13-.37.52.52,0,0,1,.37-.16l34.23-.15h0a.49.49,0,0,1,.49.44l3.88,36.1a.52.52,0,0,1-.13.39.48.48,0,0,1-.36.16l-13,.16a.46.46,0,0,1-.49-.39l-3.94-16.52-1.43,16.14a.51.51,0,0,1-.48.46l-16.42.62Zm-1.79-36.41,2.26,35.39,15.49-.58,1.67-18.78a.5.5,0,0,1,.46-.45.48.48,0,0,1,.52.38l4.56,19.13,12.06-.14-3.76-35.1Z" fill="#d1d3d4"></path><path d="M108.89,191.58a.5.5,0,0,1,0-1l33.46-.47a.48.48,0,0,1,.51.5.49.49,0,0,1-.49.5l-33.47.47Z" fill="#d1d3d4"></path><path d="M129.14,148H106.31a5.16,5.16,0,0,1-5.11-4.91h0a4.66,4.66,0,0,1,4.7-4.91h22.83a5.18,5.18,0,0,1,5.12,4.91h0A4.68,4.68,0,0,1,129.14,148Z" fill="#808"></path><path d="M139.22,243.35H122.51a5.15,5.15,0,0,1-5.11-4.91h0a4.67,4.67,0,0,1,4.71-4.91h16.71a5.16,5.16,0,0,1,5.11,4.91h0A4.67,4.67,0,0,1,139.22,243.35Z" fill="#d1d3d4"></path><path d="M194.23,243.35H177.52a5.16,5.16,0,0,1-5.12-4.91h0a4.68,4.68,0,0,1,4.71-4.91h16.71a5.16,5.16,0,0,1,5.12,4.91h0A4.67,4.67,0,0,1,194.23,243.35Z" fill="#d1d3d4"></path><path d="M126.87,76.6h0L96.78,76a.52.52,0,0,1-.49-.51A.48.48,0,0,1,96.8,75l30.08.56a.5.5,0,0,1,.49.51A.49.49,0,0,1,126.87,76.6Z" fill="#d1d3d4"></path><path d="M127.49,86.62h0L97.4,86.06a.5.5,0,0,1-.49-.51.49.49,0,0,1,.51-.49l30.08.56a.52.52,0,0,1,.49.51A.5.5,0,0,1,127.49,86.62Z" fill="#d1d3d4"></path><path d="M128.1,96.64h0L98,96.08a.52.52,0,0,1-.49-.51.5.5,0,0,1,.51-.49l30.08.56a.5.5,0,0,1,0,1Z" fill="#d1d3d4"></path><path d="M128.71,106.66h0l-30.08-.57a.49.49,0,0,1-.49-.51.47.47,0,0,1,.51-.49l30.07.57a.5.5,0,0,1,.49.51A.49.49,0,0,1,128.71,106.66Z" fill="#d1d3d4"></path><path d="M129.33,116.68h0l-30.08-.57a.5.5,0,0,1-.49-.51.54.54,0,0,1,.51-.49l30.08.57a.52.52,0,0,1,.49.51A.51.51,0,0,1,129.33,116.68Z" fill="#d1d3d4"></path><path d="M120.69,126.53h0l-20.82-.4a.5.5,0,1,1,0-1l20.83.4a.5.5,0,0,1,0,1Z" fill="#d1d3d4"></path><path d="M145,250.66l-1,1-.53-.58,1.56-1.38h.73l.56,6.09h-.83Z" fill="#d1d3d4"></path><path d="M152.81,255l2.22-2.38a2.75,2.75,0,0,0,.22-.26,1.32,1.32,0,0,0,.19-.29,1,1,0,0,0,.12-.33,1.05,1.05,0,0,0,0-.36,1.25,1.25,0,0,0-.12-.4,1.1,1.1,0,0,0-.25-.31,1.15,1.15,0,0,0-.36-.2,1.42,1.42,0,0,0-.41-.08,1,1,0,0,0-.72.24,1,1,0,0,0-.3.68l-.9-.09a1.59,1.59,0,0,1,.17-.69,1.46,1.46,0,0,1,.39-.49,1.49,1.49,0,0,1,.58-.28,2.73,2.73,0,0,1,.72-.09,3.1,3.1,0,0,1,.76.12,2.22,2.22,0,0,1,.63.33,1.68,1.68,0,0,1,.46.53,1.73,1.73,0,0,1,.22.74,1.49,1.49,0,0,1,0,.56,2.08,2.08,0,0,1-.19.49,2.49,2.49,0,0,1-.29.43l-.36.4-1.83,1.9,3.06.05.07.72-4-.06Z" fill="#d1d3d4"></path><path d="M163,254.58a1.73,1.73,0,0,0,.45.66,1.17,1.17,0,0,0,.74.23,1.19,1.19,0,0,0,.8-.29,1,1,0,0,0,.22-.34,1.12,1.12,0,0,0,.06-.45,1.16,1.16,0,0,0-.22-.61,1.14,1.14,0,0,0-.44-.35,1.73,1.73,0,0,0-.56-.16,4,4,0,0,0-.6,0l-.06-.73a3.31,3.31,0,0,0,.76-.05,1.16,1.16,0,0,0,.46-.18.53.53,0,0,0,.21-.29.92.92,0,0,0,0-.41,1,1,0,0,0-.35-.74,1.19,1.19,0,0,0-.76-.26.89.89,0,0,0-.58.18,1.13,1.13,0,0,0-.37.51l-.86-.3a1.42,1.42,0,0,1,.65-.85,2,2,0,0,1,1.08-.26,2.46,2.46,0,0,1,.72.11,1.9,1.9,0,0,1,.62.31,1.58,1.58,0,0,1,.46.53,1.69,1.69,0,0,1,.21.73,1.28,1.28,0,0,1-.21.86,1.16,1.16,0,0,1-.7.5v0a1.62,1.62,0,0,1,.53.2,1.48,1.48,0,0,1,.4.35,1.67,1.67,0,0,1,.28.46,1.63,1.63,0,0,1,.12.54,1.59,1.59,0,0,1-.09.77,1.37,1.37,0,0,1-.4.54,1.78,1.78,0,0,1-.61.32,2.68,2.68,0,0,1-.76.1,2.51,2.51,0,0,1-1.25-.34,1.92,1.92,0,0,1-.83-1Z" fill="#d1d3d4"></path><path d="M174,254.9l-2.59,0-.08-.84,2.07-3.87,1,0,.37,4h.86l.06.72h-.85l.12,1.34h-.83Zm-.34-3.77h0l-1.58,3,1.88,0Z" fill="#d1d3d4"></path><path d="M148.88,258.27l-4.94-.07a.64.64,0,0,1-.61-.58.5.5,0,0,1,.51-.56l4.94.08a.64.64,0,0,1,.62.57A.49.49,0,0,1,148.88,258.27Z" fill="#d1d3d4"></path><path d="M294.77,263.26a.45.45,0,0,1-.43-.34l-7.51-33a.45.45,0,0,1,.33-.53.45.45,0,0,1,.53.34l7.51,33a.43.43,0,0,1-.33.53Z" fill="#fff"></path><path d="M292.52,238.49a.46.46,0,0,1-.29-.11.44.44,0,0,1-.05-.63c.05-.05,4.37-5.17,3.65-10.54a.44.44,0,0,1,.88-.11c.77,5.76-3.67,11-3.86,11.23A.44.44,0,0,1,292.52,238.49Z" fill="#fff"></path></g></svg>